<svg xmlns="http://www.w3.org/2000/svg" viewBox="0 0 151.29 118.9"><g id="Layer_2" data-name="Layer 2"><g id="Layer_1-2" data-name="Layer 1"><path d="M65.79,11.46c-7.54,5.17-15.27,9.88-22.3,15.45A51.42,51.42,0,0,0,24,61.22a21.4,21.4,0,0,0,0,2.44c4.28,0,8.56-.34,12.76.09,4.89.5,9.91,1.08,14.51,2.67,9.79,3.39,15.19,10.77,16.52,21,1.29,9.94-2.3,17.89-9.75,24.58C45.18,123.55,13.62,122,4.27,96.52-3.62,75-.52,55,13.09,36.61A114.23,114.23,0,0,1,55.75,1.24C58,.13,59.2.39,60.41,2.64,62.14,5.87,64.21,8.91,65.79,11.46Z"/><path d="M142,0l7.18,11.59c-7.13,4.75-14.34,9-20.89,14C117.32,34.11,110,45.09,107.65,59c-.23,1.35-.3,2.74-.49,4.62,1.46,0,2.69-.07,3.92,0,6.52.43,13.2.14,19.52,1.53,13.55,3,20.76,12.93,20.69,27-.06,11.47-9.48,23.2-21.58,25.62-20,4-38.56-4.28-44.39-28.12-4.93-20.16-.5-38.29,12.15-54.6a113.89,113.89,0,0,1,41.4-33.71C139.76,1,140.67.57,142,0Z"/></g></g></svg>